<svg width="60" height="60" viewBox="0 0 60 60" fill="none" xmlns="http://www.w3.org/2000/svg">
<path d="M46.8988 23.2889C46.8111 21.4422 46.548 20.1231 46.1096 18.9799C45.6712 17.8367 45.0573 16.8693 44.0928 15.902C43.1283 14.9347 42.1637 14.3191 41.0238 13.8794C39.8839 13.4397 38.6563 13.1759 36.7273 13.0879C34.8859 13 34.2721 13 29.4494 13C24.7144 13 24.1006 13 22.2592 13.0879C20.4178 13.1759 19.1025 13.4397 17.9626 13.8794C16.8227 14.3191 15.8582 14.9347 14.8936 15.902C13.9291 16.8693 13.3153 17.8367 12.8769 18.9799C12.4384 20.1231 12.1754 21.3543 12.0877 23.2889C12 25.1357 12 25.7512 12 30.5C12 35.2487 12 35.8643 12.0877 37.7111C12.1754 39.5578 12.4384 40.8769 12.8769 42.0201C13.3153 43.1633 13.9291 44.1306 14.8936 45.098C15.8582 46.0653 16.8227 46.6809 17.9626 47.1206C19.1025 47.5603 20.3301 47.8241 22.2592 47.9121C24.1006 48 24.7144 48 29.4494 48C34.1844 48 34.7982 48 36.6396 47.9121C38.481 47.8241 39.7962 47.5603 40.9361 47.1206C42.076 46.6809 43.0406 46.0653 44.0051 45.098C44.9697 44.1306 45.5835 43.1633 46.0219 42.0201C46.4603 40.8769 46.7234 39.6457 46.8111 37.7111C46.8987 35.8643 46.8988 35.2487 46.8988 30.5C47.0741 25.7512 46.9864 25.1357 46.8988 23.2889ZM29.4494 39.5578C24.4513 39.5578 20.4178 35.5125 20.4178 30.5C20.4178 25.4874 24.4513 21.4422 29.4494 21.4422C34.4474 21.4422 38.481 25.4874 38.481 30.5C38.481 35.5125 34.4474 39.5578 29.4494 39.5578ZM38.8317 23.201C37.6918 23.201 36.7273 22.2337 36.7273 21.0905C36.7273 19.9472 37.6918 18.9799 38.8317 18.9799C39.9716 18.9799 40.9361 19.9472 40.9361 21.0905C40.9361 22.3216 40.0593 23.201 38.8317 23.201Z" fill="white"/>
<path d="M29.5369 24.6967C26.2926 24.6967 23.662 27.3348 23.662 30.5886C23.662 33.8424 26.2926 36.4806 29.5369 36.4806C32.7813 36.4806 35.4118 33.8424 35.4118 30.5886C35.4118 27.3348 32.7813 24.6967 29.5369 24.6967Z" fill="white"/>
<path d="M29.5368 37.1841C33.2173 37.1841 36.2009 34.1918 36.2009 30.5007C36.2009 26.8095 33.2173 23.8173 29.5368 23.8173C25.8563 23.8173 22.8727 26.8095 22.8727 30.5007C22.8727 34.1918 25.8563 37.1841 29.5368 37.1841Z" fill="white"/>
</svg>
