<svg width="60" height="60" viewBox="0 0 60 60" fill="none" xmlns="http://www.w3.org/2000/svg">
<path fill-rule="evenodd" clip-rule="evenodd" d="M43.8628 13H16.1237C12.1976 13 9 15.9833 9 19.6183V35.6377C9 39.2853 12.211 42.256 16.1237 42.256H25.9187L27.6052 44.9635L29.2647 47.6334C29.5615 48.1222 30.3171 48.1222 30.6274 47.6334L32.2869 44.9635L33.9733 42.256H43.8763C47.8024 42.256 51 39.2727 51 35.6377V19.6309C51 15.9833 47.7889 13 43.8628 13ZM31.9364 24.7335C29.7912 24.7335 28.0508 26.3254 28.0508 28.2933C28.0508 30.2613 29.7912 31.8532 31.9364 31.8532C34.0816 31.8532 35.8221 30.2613 35.8221 28.2933C35.8221 26.3254 34.0951 24.7335 31.9364 24.7335ZM31.9364 29.9981C30.911 29.9981 30.0746 29.2334 30.0746 28.2933C30.0746 27.3532 30.911 26.5886 31.9364 26.5886C32.9618 26.5886 33.7983 27.3532 33.7983 28.2933C33.7983 29.2334 32.9753 29.9981 31.9364 29.9981ZM17.4189 25.5481C18.0261 25.0342 18.8086 24.7334 19.6451 24.7334C21.5879 24.7334 23.1395 26.3378 23.1395 28.3058C23.1395 30.2737 21.5744 31.8656 19.6451 31.8656C18.7951 31.8656 18.0261 31.5523 17.4189 31.0509V31.6901H15.2603V22.6025H17.4189V25.5481ZM17.4324 28.9952C17.7293 29.6344 18.4173 30.0732 19.2134 30.0732C20.2927 30.0732 21.1562 29.2835 21.1562 28.2932C21.1562 27.303 20.2927 26.5133 19.2134 26.5133C18.4173 26.5133 17.7293 26.952 17.4324 27.5913C17.3245 27.8044 17.2705 28.0425 17.2705 28.2932C17.2705 28.5439 17.338 28.7821 17.4324 28.9952ZM42.5545 24.8849V25.449C41.9473 25.0103 41.1918 24.747 40.3823 24.747C38.399 24.747 36.7935 26.2888 36.7935 28.1815C36.7935 30.0743 38.399 31.616 40.3823 31.616C41.2053 31.616 41.9608 31.3528 42.5545 30.9141V31.8667C42.5545 31.8667 42.3386 32.8068 40.8275 32.8068V34.5742C40.8275 34.5742 42.46 34.7497 43.9171 33.396C43.9171 33.396 44.5917 32.7316 44.7401 31.8542V24.8849H42.5545ZM40.787 29.9239C39.6942 29.9239 38.8172 29.1342 38.8172 28.169C38.8172 27.2038 39.7077 26.4141 40.787 26.4141C41.5561 26.4141 42.2307 26.8153 42.5545 27.3918C42.6894 27.63 42.7568 27.8932 42.7568 28.169C42.7568 28.4448 42.6759 28.7205 42.5545 28.9461C42.2307 29.5353 41.5561 29.9239 40.787 29.9239ZM23.3823 24.2452V22.4276C23.3823 22.4276 24.8125 22.2522 26.0807 23.6435C26.0807 23.6435 26.6608 24.3204 26.7958 25.2229V25.273V31.6908H24.5696V25.273C24.3807 24.3705 23.3823 24.2452 23.3823 24.2452Z" fill="white"/>
</svg>
