<svg width="60" height="60" viewBox="0 0 60 60" fill="none" xmlns="http://www.w3.org/2000/svg">
<path d="M51.0754 19.6914C50.5652 17.8395 49.0667 16.3889 47.1855 15.8951C43.742 15 30 15 30 15C30 15 16.2261 15 12.8145 15.8951C10.9333 16.3889 9.43478 17.8395 8.92464 19.6914C8 23.0247 8 30 8 30C8 30 8 36.9753 8.92464 40.3086C9.43478 42.1605 10.9333 43.6111 12.8145 44.1049C16.258 45 30 45 30 45C30 45 43.7739 45 47.1855 44.1049C49.0667 43.6111 50.5652 42.1605 51.0754 40.3086C52 36.9753 52 30 52 30C52 30 52 23.0247 51.0754 19.6914ZM25.5044 36.3272V23.6728L37.0145 30L25.5044 36.3272Z" fill="white"/>
</svg>
