<svg width="30" height="31" viewBox="0 0 30 31" fill="none" xmlns="http://www.w3.org/2000/svg">
<g id="icon_search">
<path id="Vector 29" d="M21.7231 20.5505L20.8449 19.661L19.0658 21.4173L19.9439 22.3069L21.7231 20.5505ZM27.4439 29.9043C27.9289 30.3956 28.7204 30.4007 29.2117 29.9157C29.703 29.4307 29.7081 28.6392 29.2231 28.148L27.4439 29.9043ZM19.9439 22.3069L27.4439 29.9043L29.2231 28.148L21.7231 20.5505L19.9439 22.3069Z" fill="#1452AE"/>
<path id="Ellipse 127" d="M23.75 12.987C23.75 19.3052 18.698 24.3994 12.5 24.3994C6.30195 24.3994 1.25 19.3052 1.25 12.987C1.25 6.66893 6.30195 1.57471 12.5 1.57471C18.698 1.57471 23.75 6.66893 23.75 12.987Z" fill="white" stroke="#1452AE" stroke-width="2.5"/>
</g>
</svg>
