<svg width="146" height="146" viewBox="0 0 146 146" fill="none" xmlns="http://www.w3.org/2000/svg">
<circle cx="73" cy="73" r="73" fill="#0093BD"/>
<path d="M138.809 79.2906C139.422 79.272 139.81 78.7865 139.861 78.0264C139.925 77.2233 139.57 76.7175 139.04 76.6736C138.446 76.6251 138.156 77.2354 137.977 77.8098L137.753 78.4592C137.433 79.4932 136.803 80.4653 135.576 80.3752C134.339 80.2844 133.564 79.2434 133.688 77.5536C133.808 75.9125 134.673 74.9283 136.07 74.977L135.979 76.2236C135.239 76.2281 134.833 76.8201 134.769 77.6232C134.713 78.4563 135.075 79.0606 135.679 79.1098C136.234 79.1457 136.505 78.6564 136.756 77.9062L137.019 77.1225C137.406 75.9857 138.043 75.3079 139.056 75.3823C140.303 75.4738 141.05 76.64 140.941 78.1253C140.831 79.6203 139.914 80.5762 138.719 80.5081L138.809 79.2906Z" fill="white"/>
<path d="M133.046 83.9203L139.942 85.4827L138.925 89.9686L137.887 89.7334L138.623 86.4856L136.737 86.0583L136.055 89.068L135.017 88.8327L135.699 85.8231L133.813 85.3958L133.073 88.6626L132.025 88.4252L133.046 83.9203Z" fill="white"/>
<path d="M130.133 94.3548L130.638 93.095L136.273 98.0383L135.691 99.4885L128.198 99.1767L128.704 97.9169L130.546 98.0193L131.537 95.5494L130.133 94.3548ZM132.361 96.2484L131.625 98.0838L134.63 98.2525L134.652 98.1981L132.361 96.2484Z" fill="white"/>
<path d="M126.553 102.244L132.614 105.885L131.246 108.162C130.411 109.552 129.187 109.825 128.03 109.135C127.208 108.636 126.823 107.892 126.961 107.007L123.772 106.874L124.501 105.66L127.433 105.804L128.117 104.665L125.899 103.332L126.553 102.244ZM129.03 105.213L128.416 106.235C127.919 107.052 128.05 107.632 128.698 108.022C129.343 108.409 129.941 108.267 130.434 107.446L131.047 106.425L129.03 105.213Z" fill="white"/>
<path d="M122.103 116.604C122.851 117.034 123.662 116.828 124.214 116.17C124.958 115.283 124.805 114.083 123.575 113.058C122.332 112.009 121.14 112.085 120.399 112.968C119.859 113.611 119.782 114.433 120.308 115.097L119.486 116.077C118.571 115.055 118.46 113.502 119.536 112.219C120.735 110.79 122.653 110.608 124.397 112.078C126.151 113.543 126.292 115.471 125.102 116.889C124.098 118.086 122.627 118.426 121.281 117.584L122.103 116.604Z" fill="white"/>
<path d="M117.888 124.124L113.13 118.894L114.069 118.039L118.827 123.269L117.888 124.124Z" fill="white"/>
<path d="M108.939 130.834L104.949 124.998L105.884 124.358L111.378 126.459L111.426 126.426L108.698 122.435L109.746 121.718L113.736 127.555L112.785 128.206L107.308 126.094L107.251 126.133L109.979 130.123L108.939 130.834Z" fill="white"/>
<path d="M99.0895 133.413C99.6159 133.997 100.337 134.166 101.115 133.802C102.146 133.32 102.521 132.164 101.842 130.724C101.166 129.266 100.049 128.802 98.9789 129.303C98.0102 129.756 97.6684 130.627 98.0768 131.547L99.563 130.852L99.989 131.763L97.3882 132.979L97.0284 132.209C96.2569 130.56 96.9114 129.008 98.4949 128.268C100.264 127.441 102.052 128.141 102.997 130.173C103.963 132.228 103.284 134.049 101.608 134.833C100.197 135.493 98.6949 135.128 97.9129 133.963L99.0895 133.413Z" fill="white"/>
<path d="M84.3703 135.261C84.7828 135.183 85.1874 135.453 85.2613 135.867C85.3429 136.269 85.0655 136.665 84.6539 136.748C84.2549 136.819 83.8513 136.553 83.7744 136.15C83.6957 135.738 83.9722 135.337 84.3703 135.261Z" fill="white"/>
<path d="M67.9155 138.889C67.9459 139.502 68.4389 139.881 69.1998 139.917C70.004 139.965 70.5029 139.601 70.5365 139.07C70.5735 138.475 69.9578 138.198 69.3801 138.029L68.7265 137.818C67.6865 137.517 66.7024 136.907 66.7688 135.678C66.8358 134.44 67.8617 133.644 69.5536 133.736C71.1967 133.825 72.1974 134.671 72.1756 136.068L70.9274 136.001C70.9087 135.261 70.309 134.867 69.5048 134.819C68.6708 134.778 68.0736 135.152 68.036 135.756C68.0108 136.312 68.5052 136.574 69.2602 136.81L70.0487 137.058C71.1928 137.423 71.8827 138.047 71.8279 139.062C71.7604 140.31 70.6088 141.079 69.1217 140.998C67.6249 140.917 66.6515 140.019 66.6966 138.823L67.9155 138.889Z" fill="white"/>
<path d="M63.1262 133.198L61.6956 140.122L57.1911 139.191L57.4065 138.149L60.6677 138.823L61.0589 136.929L58.0368 136.305L58.2522 135.262L61.2743 135.887L61.6656 133.993L58.3853 133.315L58.6026 132.263L63.1262 133.198Z" fill="white"/>
<path d="M52.6646 130.478L53.9337 130.959L49.0968 136.686L47.636 136.132L47.8073 128.634L49.0764 129.116L49.0086 130.96L51.4965 131.904L52.6646 130.478ZM50.8132 132.741L48.9643 132.04L48.8518 135.047L48.9066 135.068L50.8132 132.741Z" fill="white"/>
<path d="M44.7663 127.07L41.2376 133.196L38.9358 131.871C37.531 131.062 37.2354 129.843 37.9037 128.673C38.388 127.842 39.1246 127.443 40.0121 127.566L40.0865 124.374L41.3136 125.081L41.2237 128.016L42.3746 128.679L43.6661 126.436L44.7663 127.07ZM41.8433 129.601L40.8109 129.006C39.984 128.524 39.407 128.665 39.0293 129.321C38.654 129.973 38.807 130.568 39.6363 131.046L40.6687 131.64L41.8433 129.601Z" fill="white"/>
<path d="M30.3319 122.892C29.9154 123.648 30.1362 124.454 30.8044 124.994C31.7043 125.722 32.9009 125.547 33.9041 124.298C34.9302 123.037 34.832 121.846 33.9359 121.122C33.2828 120.594 32.4603 120.531 31.8055 121.069L30.8107 120.265C31.8161 119.332 33.3671 119.192 34.6695 120.245C36.1199 121.418 36.3364 123.333 34.8989 125.103C33.4659 126.883 31.5402 127.059 30.1012 125.895C28.8862 124.913 28.5194 123.448 29.3371 122.088L30.3319 122.892Z" fill="white"/>
<path d="M22.7425 118.826L27.8851 113.974L28.7564 114.897L23.6137 119.749L22.7425 118.826Z" fill="white"/>
<path d="M15.917 110.096L21.6649 105.979L22.3246 106.9L20.3453 112.438L20.3794 112.485L24.3092 109.671L25.0485 110.703L19.3007 114.82L18.6296 113.883L20.6203 108.361L20.5804 108.305L16.6506 111.12L15.917 110.096Z" fill="white"/>
<path d="M13.1299 100.271C12.5559 100.808 12.3996 101.532 12.7781 102.303C13.279 103.325 14.4424 103.679 15.8695 102.974C17.3139 102.271 17.7571 101.145 17.2368 100.084C16.7659 99.124 15.8884 98.7984 14.9767 99.2238L15.6991 100.697L14.796 101.14L13.5317 98.562L14.2945 98.1878C15.9298 97.3858 17.4929 98.0115 18.2626 99.5809C19.1227 101.334 18.4559 103.135 16.4416 104.118C14.4052 105.122 12.5714 104.477 11.7565 102.815C11.0706 101.417 11.4076 99.9083 12.558 99.1048L13.1299 100.271Z" fill="white"/>
<path d="M10.9933 85.6343C11.0799 86.0453 10.8169 86.4549 10.4049 86.5367C10.0046 86.626 9.60347 86.3562 9.51215 85.9463C9.43341 85.5487 9.69165 85.14 10.093 85.0555C10.5039 84.969 10.9098 85.2378 10.9933 85.6343Z" fill="white"/>
<path d="M7.02666 69.2687C6.41447 69.3109 6.04532 69.8111 6.02375 70.5725C5.99089 71.3775 6.36466 71.8693 6.89639 71.8927C7.49157 71.9182 7.75744 71.2972 7.91442 70.7164L8.11316 70.0588C8.39378 69.0133 8.98535 68.0176 10.2151 68.0603C11.4546 68.1034 12.2696 69.1137 12.2107 70.807C12.1536 72.4516 11.3268 73.4684 9.92926 73.4736L9.97267 72.2243C10.7116 72.1914 11.0942 71.5842 11.1271 70.7792C11.1512 69.9445 10.7662 69.3546 10.1612 69.3287C9.60476 69.3143 9.35289 69.8136 9.13107 70.573L8.89831 71.3662C8.5554 72.5171 7.94472 73.2189 6.9297 73.1837C5.68046 73.1403 4.88937 72.0037 4.94109 70.5153C4.99315 69.0172 5.87281 68.0267 7.06905 68.0487L7.02666 69.2687Z" fill="white"/>
<path d="M12.6031 64.4023L5.65302 63.1042L6.49752 58.5828L7.54388 58.7782L6.93247 62.0517L8.83319 62.4067L9.39978 59.3732L10.4461 59.5687L9.87955 62.6022L11.7803 62.9572L12.3953 59.6645L13.4512 59.8617L12.6031 64.4023Z" fill="white"/>
<path d="M15.1107 53.848L14.653 55.1259L8.83651 50.3974L9.36338 48.9264L16.8626 48.9569L16.4049 50.2349L14.56 50.2016L13.6627 52.7069L15.1107 53.848ZM12.8126 52.0394L13.4794 50.1776L10.4705 50.1217L10.4507 50.1768L12.8126 52.0394Z" fill="white"/>
<path d="M18.2677 46.0457L12.0643 42.6535L13.3387 40.3229C14.1164 38.9006 15.3279 38.578 16.5127 39.2203C17.3543 39.6861 17.769 40.4137 17.6663 41.3036L20.8587 41.3074L20.1793 42.5498L17.2434 42.5249L16.6062 43.6902L18.8768 44.9318L18.2677 46.0457ZM15.6722 43.1795L16.2439 42.1341C16.7073 41.2968 16.5536 40.723 15.8896 40.3599C15.2298 39.9991 14.6381 40.1653 14.1789 41.005L13.6073 42.0503L15.6722 43.1795Z" fill="white"/>
<path d="M22.1161 31.508C21.3513 31.1082 20.5499 31.3465 20.0243 32.0264C19.3166 32.942 19.518 34.1345 20.788 35.1102C22.0715 36.1085 23.2599 35.9842 23.9647 35.0725C24.4784 34.408 24.5226 33.5844 23.9704 32.9415L24.7528 31.9294C25.7073 32.9141 25.881 34.4617 24.8567 35.7867C23.716 37.2625 21.8067 37.5208 20.0056 36.1223C18.1947 34.7285 17.9766 32.8072 19.1084 31.3431C20.0641 30.1069 21.5202 29.7081 22.8985 30.4959L22.1161 31.508Z" fill="white"/>
<path d="M26.1846 23.6476L31.1293 28.7013L30.2219 29.5891L25.2772 24.5355L26.1846 23.6476Z" fill="white"/>
<path d="M34.6657 16.7358L38.8872 22.4075L37.9784 23.0838L32.4052 21.206L32.3582 21.241L35.2444 25.1188L34.226 25.8768L30.0045 20.2051L30.9289 19.517L36.4865 21.4065L36.5413 21.3657L33.6551 17.4879L34.6657 16.7358Z" fill="white"/>
<path d="M44.5023 13.6888C43.9546 13.1248 43.228 12.982 42.4636 13.3747C41.4516 13.8945 41.1193 15.0643 41.8509 16.478C42.5806 17.9091 43.7142 18.3314 44.7653 17.7915C45.7165 17.3029 46.0257 16.4195 45.5835 15.5158L44.1241 16.2654L43.6645 15.3707L46.2184 14.0589L46.6066 14.8146C47.4388 16.4347 46.8422 18.0091 45.2873 18.8078C43.55 19.7002 41.7371 19.067 40.7174 17.0712C39.6757 15.0538 40.2867 13.2084 41.9329 12.3628C43.3184 11.6511 44.8329 11.96 45.6576 13.0954L44.5023 13.6888Z" fill="white"/>
<path d="M59.0585 11.2498C58.6493 11.3441 58.2347 11.0889 58.1451 10.6787C58.0482 10.2801 58.3103 9.8739 58.7184 9.77478C59.1144 9.68848 59.5279 9.93888 59.62 10.3385C59.7144 10.7477 59.4534 11.1587 59.0585 11.2498Z" fill="white"/>
<path d="M75.3033 6.94192C75.2493 6.33066 74.7421 5.97122 73.9804 5.96434C73.1749 5.94702 72.6904 6.33021 72.6773 6.8623C72.6632 7.45786 73.2893 7.7117 73.873 7.85744L74.5343 8.04346C75.5851 8.30385 76.592 8.87611 76.573 10.1064C76.5538 11.3465 75.5594 12.1809 73.8653 12.1547C72.2199 12.1293 71.1874 11.3223 71.1552 9.9251L72.4051 9.9444C72.4523 10.6825 73.0667 11.0534 73.8722 11.0707C74.7072 11.0787 75.2895 10.6824 75.3038 10.0771C75.3075 9.52041 74.8033 9.27823 74.0398 9.0711L73.2423 8.85368C72.085 8.53304 71.3715 7.93602 71.3872 6.92051C71.4065 5.67066 72.5276 4.8578 74.0166 4.88079C75.5155 4.90394 76.5228 5.76432 76.5239 6.96077L75.3033 6.94192Z" fill="white"/>
<path d="M80.3525 12.4127L81.5175 5.43902L86.0542 6.19685L85.8788 7.24676L82.5943 6.69809L82.2757 8.60526L85.3194 9.1137L85.1441 10.1636L82.1003 9.65517L81.7817 11.5623L85.0856 12.1142L84.9086 13.1738L80.3525 12.4127Z" fill="white"/>
<path d="M91.0498 14.7332L89.7635 14.2996L94.3817 8.39512L95.8623 8.89423L95.9729 16.3927L94.6866 15.9591L94.6851 14.1139L92.1634 13.2639L91.0498 14.7332ZM92.8148 12.4014L94.6888 13.0331L94.6881 10.0236L94.6326 10.0049L92.8148 12.4014Z" fill="white"/>
<path d="M98.9063 17.7362L102.183 11.4712L104.537 12.7023C105.973 13.4536 106.318 14.659 105.698 15.8554C105.248 16.7055 104.528 17.1335 103.636 17.0473L103.692 20.2392L102.437 19.5829L102.408 16.647L101.231 16.0315L100.031 18.3246L98.9063 17.7362ZM101.724 15.0882L102.78 15.6404C103.626 16.0883 104.196 15.924 104.547 15.2534C104.896 14.5871 104.719 13.9985 103.871 13.555L102.815 13.0028L101.724 15.0882Z" fill="white"/>
<path d="M113.564 21.3451C113.95 20.5731 113.697 19.7762 113.008 19.2631C112.08 18.5721 110.891 18.7952 109.939 20.0829C108.964 21.3843 109.11 22.5703 110.034 23.2584C110.708 23.7598 111.532 23.789 112.165 23.2252L113.191 23.989C112.224 24.9613 110.68 25.1632 109.336 24.1633C107.84 23.0496 107.547 21.1454 108.912 19.3191C110.273 17.483 112.19 17.2299 113.674 18.3349C114.928 19.2678 115.353 20.7164 114.59 22.1089L113.564 21.3451Z" fill="white"/>
<path d="M121.521 25.2957L116.558 30.3314L115.654 29.4402L120.617 24.4045L121.521 25.2957Z" fill="white"/>
<path d="M128.596 33.6705L123.002 37.9947L122.309 37.0985L124.085 31.4919L124.049 31.4455L120.225 34.402L119.448 33.3976L125.042 29.0734L125.747 29.9851L123.959 35.5762L124.001 35.6303L127.826 32.6738L128.596 33.6705Z" fill="white"/>
<path d="M131.808 43.4451C132.362 42.887 132.491 42.1579 132.085 41.4009C131.546 40.3987 130.37 40.0881 128.97 40.8458C127.553 41.6018 127.152 42.743 127.711 43.7839C128.217 44.7259 129.106 45.0187 130.001 44.5599L129.225 43.1146L130.111 42.6386L131.47 45.1677L130.721 45.5699C129.117 46.4318 127.532 45.8645 126.705 44.3247C125.78 42.6041 126.38 40.7799 128.356 39.7234C130.354 38.6445 132.211 39.2214 133.086 40.8516C133.824 42.2237 133.543 43.7437 132.423 44.5892L131.808 43.4451Z" fill="white"/>
<path d="M134.503 57.96C134.401 57.5527 134.648 57.1333 135.056 57.0359C135.453 56.9314 135.864 57.1858 135.971 57.5919C136.065 57.9862 135.822 58.4044 135.425 58.5041C135.017 58.6063 134.601 58.3531 134.503 57.96Z" fill="white"/>
</svg>
