<svg width="525" height="200" viewBox="0 0 525 200" fill="none" xmlns="http://www.w3.org/2000/svg">
<g filter="url(#filter0_d_3466_53656)">
<path d="M9.845 129.716C6.02633 129.119 4.117 126.434 4.117 121.661C4.117 114.382 7.45833 106.327 14.141 97.496C21.0623 88.188 28.2223 83.534 35.621 83.534C38.127 83.534 40.3943 84.1307 42.423 85.324C44.571 86.398 45.645 88.1283 45.645 90.515C45.645 93.2597 44.5113 94.811 42.244 95.169C42.96 93.9757 43.318 92.7823 43.318 91.589C43.318 88.9637 41.8263 87.651 38.843 87.651C35.979 87.651 32.8763 89.083 29.535 91.947C21.301 98.9877 15.2747 107.162 11.456 116.47C10.2627 119.334 9.666 121.721 9.666 123.63C9.666 125.181 10.203 125.957 11.277 125.957C12.4703 125.957 14.5587 124.585 17.542 121.84C19.5707 119.931 23.986 114.143 30.788 104.477C32.578 101.971 34.01 100.718 35.084 100.718C36.0387 100.718 36.516 103.224 36.516 108.236V118.26C37.59 123.511 39.4397 126.136 42.065 126.136C43.497 126.136 45.2273 125.659 47.256 124.704C49.404 123.63 51.4923 121.959 53.521 119.692L56.743 116.291C57.101 116.172 57.5187 116.41 57.996 117.007C57.5187 118.32 55.4303 120.527 51.731 123.63C47.077 127.568 42.781 129.537 38.843 129.537C37.769 129.537 36.695 129.358 35.621 129C32.5183 127.926 30.4897 124.585 29.535 118.976C29.2963 117.425 29.0577 116.112 28.819 115.038C28.6997 113.964 28.64 113.069 28.64 112.353C28.64 111.995 28.64 111.697 28.64 111.458C27.924 112.89 25.8357 115.873 22.375 120.408C17.2437 127.091 13.067 130.193 9.845 129.716ZM62.0333 129.895C56.0666 129.895 53.0833 125.718 53.0833 117.365C53.0833 113.904 53.6203 109.549 54.6943 104.298H54.1573C53.322 104.298 52.9043 104 52.9043 103.403C52.9043 102.448 53.9783 100.778 56.1263 98.391C63.167 68.677 72.5943 48.8677 84.4083 38.963C87.0336 36.815 89.7783 35.741 92.6423 35.741C96.5803 35.741 98.5493 37.7697 98.5493 41.827C98.5493 50.6577 94.313 60.6817 85.8403 71.899C81.067 77.8657 73.4296 86.0997 62.9283 96.601C60.1836 105.909 58.8113 113.308 58.8113 118.797C58.8113 124.048 60.6013 126.673 64.1813 126.673C66.926 126.673 70.2076 125.599 74.0263 123.451C77.845 121.303 80.8283 118.857 82.9763 116.112C83.8116 115.038 84.468 114.501 84.9453 114.501C85.184 114.501 85.3033 114.74 85.3033 115.217C85.3033 116.53 84.9453 117.604 84.2293 118.439C82.0813 120.945 78.7996 123.391 74.3843 125.778C69.253 128.523 65.136 129.895 62.0333 129.895ZM63.4653 92.663C69.9093 86.6963 76.413 79.1783 82.9763 70.109C91.3296 58.5337 95.6256 49.5837 95.8643 43.259V42.722C95.8643 39.858 95.029 38.426 93.3583 38.426C91.3296 38.426 89.0026 40.0967 86.3773 43.438C84.7066 45.4667 82.7973 48.3903 80.6493 52.209C78.5013 55.9083 76.1146 60.622 73.4893 66.35C71.1026 71.6007 69.074 76.4337 67.4033 80.849C65.7326 85.145 64.42 89.083 63.4653 92.663ZM91.7501 129.895C85.7834 129.895 82.8001 125.718 82.8001 117.365C82.8001 113.904 83.3371 109.549 84.4111 104.298H83.8741C83.0388 104.298 82.6211 104 82.6211 103.403C82.6211 102.448 83.6951 100.778 85.8431 98.391C92.8838 68.677 102.311 48.8677 114.125 38.963C116.75 36.815 119.495 35.741 122.359 35.741C126.297 35.741 128.266 37.7697 128.266 41.827C128.266 50.6577 124.03 60.6817 115.557 71.899C110.784 77.8657 103.146 86.0997 92.6451 96.601C89.9004 105.909 88.5281 113.308 88.5281 118.797C88.5281 124.048 90.3181 126.673 93.8981 126.673C96.6428 126.673 99.9244 125.599 103.743 123.451C107.562 121.303 110.545 118.857 112.693 116.112C113.528 115.038 114.185 114.501 114.662 114.501C114.901 114.501 115.02 114.74 115.02 115.217C115.02 116.53 114.662 117.604 113.946 118.439C111.798 120.945 108.516 123.391 104.101 125.778C98.9698 128.523 94.8528 129.895 91.7501 129.895ZM93.1821 92.663C99.6261 86.6963 106.13 79.1783 112.693 70.109C121.046 58.5337 125.342 49.5837 125.581 43.259V42.722C125.581 39.858 124.746 38.426 123.075 38.426C121.046 38.426 118.719 40.0967 116.094 43.438C114.423 45.4667 112.514 48.3903 110.366 52.209C108.218 55.9083 105.831 60.622 103.206 66.35C100.819 71.6007 98.7908 76.4337 97.1201 80.849C95.4494 85.145 94.1368 89.083 93.1821 92.663ZM153.793 129.895C152.242 129.895 150.929 129.716 149.855 129.358C148.781 129.119 147.946 128.821 147.349 128.463C145.917 127.389 145.201 125.36 145.201 122.377C145.201 121.422 145.261 120.348 145.38 119.155C145.619 117.962 145.857 116.589 146.096 115.038C146.573 112.174 148.125 107.043 150.75 99.644C151.347 98.0927 151.824 96.7203 152.182 95.527C152.659 94.3337 153.017 93.3193 153.256 92.484L154.151 90.157C151.526 90.157 147.11 90.694 140.905 91.768H140.726C140.249 91.768 140.01 91.1713 140.01 89.978C140.01 88.546 140.547 87.651 141.621 87.293C142.456 86.935 147.051 86.4577 155.404 85.861C156.359 82.7583 157.492 79.1783 158.805 75.121C160.237 70.9443 161.848 66.35 163.638 61.338C163.757 60.622 164.235 60.264 165.07 60.264C166.025 60.264 167.099 61.0993 168.292 62.77C169.485 64.3213 170.082 65.813 170.082 67.245C170.082 67.7223 170.022 68.0803 169.903 68.319L161.132 85.861C162.683 85.7417 164.056 85.682 165.249 85.682C166.562 85.682 167.815 85.682 169.008 85.682C175.81 85.682 179.271 86.219 179.39 87.293C179.39 87.7703 176.526 88.2477 170.798 88.725C169.247 88.8443 167.874 88.9637 166.681 89.083C165.488 89.083 164.414 89.2023 163.459 89.441L160.058 89.978C158.745 89.978 156.896 94.9303 154.509 104.835C152.361 113.666 151.287 118.916 151.287 120.587C151.287 124.167 152.6 125.957 155.225 125.957C157.254 125.957 161.251 124.346 167.218 121.124C167.934 120.647 168.829 120.05 169.903 119.334C170.977 118.499 172.29 117.484 173.841 116.291C176.228 114.262 177.72 113.248 178.316 113.248C178.555 113.248 178.734 113.487 178.853 113.964C178.853 115.635 175.75 118.618 169.545 122.914C163.101 127.568 157.85 129.895 153.793 129.895ZM173.303 129.537C172.945 129.537 172.766 129.358 172.766 129C172.527 125.659 173.243 119.215 174.914 109.668C175.749 104.895 176.525 100.897 177.241 97.675C178.076 94.3337 178.792 91.8277 179.389 90.157C175.689 90.9923 173.72 92.484 173.482 94.632C173.243 96.064 172.825 96.78 172.229 96.78C171.513 96.78 171.274 96.064 171.513 94.632C171.632 91.2907 174.675 88.725 180.642 86.935C182.193 81.8037 184.043 76.7917 186.191 71.899C188.458 67.0063 190.964 62.233 193.709 57.579C200.153 47.0777 206.955 39.0823 214.115 33.593C221.394 27.9843 228.793 25.18 236.311 25.18C245.977 25.18 252.421 29.2373 255.643 37.352C256.478 39.3807 256.896 41.5883 256.896 43.975C256.896 50.8963 253.495 56.9227 246.693 62.054C236.549 69.93 216.203 78.701 185.654 88.367C183.983 92.9017 181.954 102.448 179.568 117.007L194.425 97.317C194.663 95.885 195.499 94.3337 196.931 92.663C198.482 90.873 199.735 89.978 200.69 89.978C201.525 89.978 201.943 90.6343 201.943 91.947C201.943 92.1857 201.943 92.484 201.943 92.842C201.943 93.2 201.883 93.558 201.764 93.916C200.332 103.582 199.616 110.026 199.616 113.248C199.616 120.885 200.988 124.704 203.733 124.704C206.835 124.704 211.072 121.542 216.442 115.217L220.201 110.563C220.559 110.205 220.857 110.563 221.096 111.637C220.141 113.785 217.695 116.888 213.757 120.945C208.387 126.554 203.792 129.358 199.974 129.358C198.661 129.358 197.587 129.119 196.752 128.642C193.888 127.21 192.456 122.377 192.456 114.143C192.456 111.995 192.515 109.966 192.635 108.057C192.873 106.148 193.112 104.358 193.351 102.687C190.487 106.028 185.773 111.816 179.21 120.05C178.971 122.795 178.136 125.062 176.704 126.852C175.391 128.642 174.257 129.537 173.303 129.537ZM186.37 85.324C194.723 82.9373 204.926 78.9397 216.979 73.331C230.105 67.245 239.712 61.875 245.798 57.221C251.764 52.567 254.748 47.7937 254.748 42.901C254.748 41.5883 254.509 40.395 254.032 39.321C251.645 33.3543 245.917 30.371 236.848 30.371C234.342 30.371 232.134 30.6097 230.225 31.087C217.575 33.3543 207.551 40.6337 200.153 52.925C198.84 54.9537 197.05 58.653 194.783 64.023C192.515 69.5123 189.711 76.6127 186.37 85.324ZM223.456 129.716C219.638 129.119 217.728 126.434 217.728 121.661C217.728 114.382 221.07 106.327 227.752 97.496C234.674 88.188 241.834 83.534 249.232 83.534C251.738 83.534 254.006 84.1307 256.034 85.324C258.182 86.398 259.256 88.1283 259.256 90.515C259.256 93.2597 258.123 94.811 255.855 95.169C256.571 93.9757 256.929 92.7823 256.929 91.589C256.929 88.9637 255.438 87.651 252.454 87.651C249.59 87.651 246.488 89.083 243.146 91.947C234.912 98.9877 228.886 107.162 225.067 116.47C223.874 119.334 223.277 121.721 223.277 123.63C223.277 125.181 223.814 125.957 224.888 125.957C226.082 125.957 228.17 124.585 231.153 121.84C233.182 119.931 237.597 114.143 244.399 104.477C246.189 101.971 247.621 100.718 248.695 100.718C249.65 100.718 250.127 103.224 250.127 108.236V118.26C251.201 123.511 253.051 126.136 255.676 126.136C257.108 126.136 258.839 125.659 260.867 124.704C263.015 123.63 265.104 121.959 267.132 119.692L270.354 116.291C270.712 116.172 271.13 116.41 271.607 117.007C271.13 118.32 269.042 120.527 265.342 123.63C260.688 127.568 256.392 129.537 252.454 129.537C251.38 129.537 250.306 129.358 249.232 129C246.13 127.926 244.101 124.585 243.146 118.976C242.908 117.425 242.669 116.112 242.43 115.038C242.311 113.964 242.251 113.069 242.251 112.353C242.251 111.995 242.251 111.697 242.251 111.458C241.535 112.89 239.447 115.873 235.986 120.408C230.855 127.091 226.678 130.193 223.456 129.716ZM275.108 129.895C273.556 129.895 272.244 129.716 271.17 129.358C270.096 129.119 269.26 128.821 268.664 128.463C267.232 127.389 266.516 125.36 266.516 122.377C266.516 121.422 266.575 120.348 266.695 119.155C266.933 117.962 267.172 116.589 267.411 115.038C267.888 112.174 269.439 107.043 272.065 99.644C272.661 98.0927 273.139 96.7203 273.497 95.527C273.974 94.3337 274.332 93.3193 274.571 92.484L275.466 90.157C272.84 90.157 268.425 90.694 262.22 91.768H262.041C261.563 91.768 261.325 91.1713 261.325 89.978C261.325 88.546 261.862 87.651 262.936 87.293C263.771 86.935 268.365 86.4577 276.719 85.861C277.673 82.7583 278.807 79.1783 280.12 75.121C281.552 70.9443 283.163 66.35 284.953 61.338C285.072 60.622 285.549 60.264 286.385 60.264C287.339 60.264 288.413 61.0993 289.607 62.77C290.8 64.3213 291.397 65.813 291.397 67.245C291.397 67.7223 291.337 68.0803 291.218 68.319L282.447 85.861C283.998 85.7417 285.37 85.682 286.564 85.682C287.876 85.682 289.129 85.682 290.323 85.682C297.125 85.682 300.585 86.219 300.705 87.293C300.705 87.7703 297.841 88.2477 292.113 88.725C290.561 88.8443 289.189 88.9637 287.996 89.083C286.802 89.083 285.728 89.2023 284.774 89.441L281.373 89.978C280.06 89.978 278.21 94.9303 275.824 104.835C273.676 113.666 272.602 118.916 272.602 120.587C272.602 124.167 273.914 125.957 276.54 125.957C278.568 125.957 282.566 124.346 288.533 121.124C289.249 120.647 290.144 120.05 291.218 119.334C292.292 118.499 293.604 117.484 295.156 116.291C297.542 114.262 299.034 113.248 299.631 113.248C299.869 113.248 300.048 113.487 300.168 113.964C300.168 115.635 297.065 118.618 290.86 122.914C284.416 127.568 279.165 129.895 275.108 129.895ZM334.283 129.716C330.464 129.119 328.555 126.434 328.555 121.661C328.555 114.382 331.896 106.327 338.579 97.496C345.5 88.188 352.66 83.534 360.059 83.534C362.565 83.534 364.832 84.1307 366.861 85.324C369.009 86.398 370.083 88.1283 370.083 90.515C370.083 93.2597 368.949 94.811 366.682 95.169C367.398 93.9757 367.756 92.7823 367.756 91.589C367.756 88.9637 366.264 87.651 363.281 87.651C360.417 87.651 357.314 89.083 353.973 91.947C345.739 98.9877 339.712 107.162 335.894 116.47C334.7 119.334 334.104 121.721 334.104 123.63C334.104 125.181 334.641 125.957 335.715 125.957C336.908 125.957 338.996 124.585 341.98 121.84C344.008 119.931 348.424 114.143 355.226 104.477C357.016 101.971 358.448 100.718 359.522 100.718C360.476 100.718 360.954 103.224 360.954 108.236V118.26C362.028 123.511 363.877 126.136 366.503 126.136C367.935 126.136 369.665 125.659 371.693 124.704C373.842 123.63 375.93 121.959 377.959 119.692L381.181 116.291C381.539 116.172 381.956 116.41 382.434 117.007C381.956 118.32 379.868 120.527 376.169 123.63C371.515 127.568 367.219 129.537 363.281 129.537C362.207 129.537 361.133 129.358 360.059 129C356.956 127.926 354.927 124.585 353.973 118.976C353.734 117.425 353.495 116.112 353.257 115.038C353.137 113.964 353.078 113.069 353.078 112.353C353.078 111.995 353.078 111.697 353.078 111.458C352.362 112.89 350.273 115.873 346.812 120.408C341.681 127.091 337.505 130.193 334.283 129.716ZM375.552 133.833C371.017 133.833 368.75 132.878 368.75 130.969C368.75 128.702 370.659 127.449 374.478 127.21C379.49 126.971 385.695 126.375 393.094 125.42C394.048 123.869 394.526 122.496 394.526 121.303C394.526 119.394 393.153 117.246 390.409 114.859C383.845 109.131 380.564 103.642 380.564 98.391C380.564 96.601 380.981 94.9303 381.817 93.379C385.874 86.4577 390.886 82.997 396.853 82.997C399.359 82.997 401.507 83.6533 403.297 84.966C405.087 86.2787 405.982 87.7107 405.982 89.262C405.982 89.7393 405.862 90.2167 405.624 90.694C405.504 91.052 405.325 91.231 405.087 91.231C404.848 91.231 404.55 90.873 404.192 90.157C403.953 88.1283 402.819 87.114 400.791 87.114C397.807 87.114 394.705 88.725 391.483 91.947C388.38 95.2883 386.829 98.4507 386.829 101.434C386.829 104.059 388.559 107.46 392.02 111.637C395.48 115.694 397.211 118.737 397.211 120.766C397.211 121.721 396.912 122.914 396.316 124.346C397.867 123.63 399.776 122.616 402.044 121.303C404.43 119.99 407.235 118.379 410.457 116.47C410.815 116.709 409.442 118.2 406.34 120.945L394.884 127.747C393.929 129.418 391.423 130.85 387.366 132.043C383.666 133.236 379.728 133.833 375.552 133.833ZM411.037 133.833C406.502 133.833 404.235 132.878 404.235 130.969C404.235 128.702 406.144 127.449 409.963 127.21C414.975 126.971 421.18 126.375 428.579 125.42C429.534 123.869 430.011 122.496 430.011 121.303C430.011 119.394 428.639 117.246 425.894 114.859C419.331 109.131 416.049 103.642 416.049 98.391C416.049 96.601 416.467 94.9303 417.302 93.379C421.359 86.4577 426.371 82.997 432.338 82.997C434.844 82.997 436.992 83.6533 438.782 84.966C440.572 86.2787 441.467 87.7107 441.467 89.262C441.467 89.7393 441.348 90.2167 441.109 90.694C440.99 91.052 440.811 91.231 440.572 91.231C440.333 91.231 440.035 90.873 439.677 90.157C439.438 88.1283 438.305 87.114 436.276 87.114C433.293 87.114 430.19 88.725 426.968 91.947C423.865 95.2883 422.314 98.4507 422.314 101.434C422.314 104.059 424.044 107.46 427.505 111.637C430.966 115.694 432.696 118.737 432.696 120.766C432.696 121.721 432.398 122.914 431.801 124.346C433.352 123.63 435.262 122.616 437.529 121.303C439.916 119.99 442.72 118.379 445.942 116.47C446.3 116.709 444.928 118.2 441.825 120.945L430.369 127.747C429.414 129.418 426.908 130.85 422.851 132.043C419.152 133.236 415.214 133.833 411.037 133.833ZM459.052 131.148C455.472 131.148 452.489 130.074 450.102 127.926C447.716 125.659 446.522 121.84 446.522 116.47C446.522 115.038 446.642 113.487 446.88 111.816C447.954 105.73 450.46 99.9423 454.398 94.453C459.291 87.7703 464.363 84.429 469.613 84.429C472.358 84.429 474.924 85.2047 477.31 86.756C479.697 88.188 480.89 90.336 480.89 93.2C480.89 96.422 479.578 99.7633 476.952 103.224H480.532C481.129 103.224 481.487 103.284 481.606 103.403C481.606 104.119 479.399 104.895 474.983 105.73C472.358 108.713 470.389 110.205 469.076 110.205C468.838 110.205 468.718 110.086 468.718 109.847C468.718 109.966 469.613 108.773 471.403 106.267C469.852 106.267 467.764 106.386 465.138 106.625C462.632 106.744 459.589 107.043 456.009 107.52C454.697 111.1 454.04 114.441 454.04 117.544C454.04 121.482 455.114 124.346 457.262 126.136C458.575 127.329 460.186 127.926 462.095 127.926C462.453 127.926 462.811 127.926 463.169 127.926C463.527 127.926 463.885 127.866 464.243 127.747C471.881 126.434 479.279 122.019 486.439 114.501C487.036 113.666 487.513 113.546 487.871 114.143C487.991 114.262 488.05 114.441 488.05 114.68C488.05 115.157 487.692 115.754 486.976 116.47C484.47 119.692 480.532 122.854 475.162 125.957C469.196 129.418 463.826 131.148 459.052 131.148ZM457.799 103.761C459.47 103.642 461.618 103.582 464.243 103.582L473.193 103.403C474.506 100.778 475.341 98.6893 475.699 97.138C476.057 95.5867 476.236 94.3337 476.236 93.379C476.236 90.873 475.282 89.62 473.372 89.62C470.986 89.62 468.36 91.052 465.496 93.916C463.826 95.5867 462.334 97.2573 461.021 98.928C459.709 100.479 458.635 102.09 457.799 103.761ZM497.11 129.895C495.558 129.895 494.246 129.716 493.172 129.358C492.098 129.119 491.262 128.821 490.666 128.463C489.234 127.389 488.518 125.36 488.518 122.377C488.518 121.422 488.577 120.348 488.697 119.155C488.935 117.962 489.174 116.589 489.413 115.038C489.89 112.174 491.441 107.043 494.067 99.644C494.663 98.0927 495.141 96.7203 495.499 95.527C495.976 94.3337 496.334 93.3193 496.573 92.484L497.468 90.157C494.842 90.157 490.427 90.694 484.222 91.768H484.043C483.565 91.768 483.327 91.1713 483.327 89.978C483.327 88.546 483.864 87.651 484.938 87.293C485.773 86.935 490.367 86.4577 498.721 85.861C499.675 82.7583 500.809 79.1783 502.122 75.121C503.554 70.9443 505.165 66.35 506.955 61.338C507.074 60.622 507.551 60.264 508.387 60.264C509.341 60.264 510.415 61.0993 511.609 62.77C512.802 64.3213 513.399 65.813 513.399 67.245C513.399 67.7223 513.339 68.0803 513.22 68.319L504.449 85.861C506 85.7417 507.372 85.682 508.566 85.682C509.878 85.682 511.131 85.682 512.325 85.682C519.127 85.682 522.587 86.219 522.707 87.293C522.707 87.7703 519.843 88.2477 514.115 88.725C512.563 88.8443 511.191 88.9637 509.998 89.083C508.804 89.083 507.73 89.2023 506.776 89.441L503.375 89.978C502.062 89.978 500.212 94.9303 497.826 104.835C495.678 113.666 494.604 118.916 494.604 120.587C494.604 124.167 495.916 125.957 498.542 125.957C500.57 125.957 504.568 124.346 510.535 121.124C511.251 120.647 512.146 120.05 513.22 119.334C514.294 118.499 515.606 117.484 517.158 116.291C519.544 114.262 521.036 113.248 521.633 113.248C521.871 113.248 522.05 113.487 522.17 113.964C522.17 115.635 519.067 118.618 512.862 122.914C506.418 127.568 501.167 129.895 497.11 129.895Z" fill="url(#paint0_linear_3466_53656)"/>
</g>
<path d="M8.85156 172L3.4375 152.203H5.43359L9.83594 169.02H10L14.4297 152.203H16.6445L21.0742 169.02H21.2383L25.6406 152.203H27.6367L22.2227 172H20.1445L15.6055 155.457H15.4688L10.9297 172H8.85156ZM34.5 172.301C30.6035 172.314 27.8965 169.184 27.9102 164.645C27.8965 160.078 30.6035 156.947 34.5 156.934C38.3828 156.947 41.0762 160.078 41.0625 164.645C41.0762 169.184 38.3828 172.314 34.5 172.301ZM29.7695 164.645C29.7695 167.898 31.4375 170.633 34.5 170.633C37.5352 170.633 39.2031 167.898 39.2031 164.645C39.2031 161.377 37.5352 158.615 34.5 158.629C31.4512 158.615 29.7695 161.391 29.7695 164.645ZM50.168 172.301C46.2715 172.314 43.5645 169.184 43.5781 164.645C43.5645 160.078 46.2715 156.947 50.168 156.934C54.0508 156.947 56.7441 160.078 56.7305 164.645C56.7441 169.184 54.0508 172.314 50.168 172.301ZM45.4375 164.645C45.4375 167.898 47.1055 170.633 50.168 170.633C53.2031 170.633 54.8711 167.898 54.8711 164.645C54.8711 161.377 53.2031 158.615 50.168 158.629C47.1191 158.615 45.4375 161.391 45.4375 164.645ZM59.9844 172V157.152H61.7891V159.449H61.9258C62.5137 157.932 64.1133 156.934 65.9453 156.934C66.2461 156.934 66.6699 156.947 66.9023 156.961V158.848C66.752 158.807 66.2871 158.725 65.8086 158.738C63.5254 158.725 61.8574 160.311 61.8711 162.457V172H59.9844ZM69.3633 172V157.152H71.2227V172H69.3633ZM68.9531 153.324C68.9531 152.6 69.5684 152.025 70.3203 152.012C71.0586 152.025 71.6738 152.6 71.6875 153.324C71.6738 154.049 71.0586 154.623 70.3203 154.609C69.5684 154.623 68.9531 154.049 68.9531 153.324ZM82.5703 172H80.5195L87.7109 152.203H89.8164L97.0078 172H94.957L92.8789 166.121H84.6484L82.5703 172ZM85.2637 164.398H92.2637L88.832 154.719H88.6953L85.2637 164.398ZM107.781 160.844C107.453 159.449 106.359 158.574 104.527 158.574C102.545 158.561 101.15 159.654 101.164 161.09C101.15 162.225 102.012 163.018 103.816 163.469L106.086 164.016C108.588 164.631 109.846 165.957 109.832 167.953C109.846 170.482 107.781 172.314 104.281 172.301C101.109 172.314 99.168 170.852 98.7852 168.227H100.727C101.027 169.84 102.23 170.66 104.254 170.66C106.482 170.66 107.932 169.648 107.945 168.062C107.932 166.887 107.125 166.066 105.375 165.656L103.105 165.109C100.604 164.521 99.291 163.141 99.2773 161.172C99.291 158.711 101.41 156.934 104.527 156.934C107.439 156.947 109.299 158.533 109.641 160.844H107.781ZM121.371 160.844C121.043 159.449 119.949 158.574 118.117 158.574C116.135 158.561 114.74 159.654 114.754 161.09C114.74 162.225 115.602 163.018 117.406 163.469L119.676 164.016C122.178 164.631 123.436 165.957 123.422 167.953C123.436 170.482 121.371 172.314 117.871 172.301C114.699 172.314 112.758 170.852 112.375 168.227H114.316C114.617 169.84 115.82 170.66 117.844 170.66C120.072 170.66 121.521 169.648 121.535 168.062C121.521 166.887 120.715 166.066 118.965 165.656L116.695 165.109C114.193 164.521 112.881 163.141 112.867 161.172C112.881 158.711 115 156.934 118.117 156.934C121.029 156.947 122.889 158.533 123.23 160.844H121.371ZM132.773 172.301C128.576 172.314 125.951 169.184 125.965 164.672C125.951 160.16 128.631 156.947 132.5 156.934C135.727 156.947 138.83 159.217 138.844 164.262V165.137H127.824C127.906 168.5 129.82 170.633 132.773 170.633C134.811 170.633 136.014 169.58 136.547 168.637H138.543C137.873 170.688 135.768 172.314 132.773 172.301ZM127.838 163.523H136.93C136.93 160.748 135.125 158.615 132.527 158.629C129.848 158.615 128.002 160.857 127.838 163.523ZM148.059 157.152V158.738H144.941V168.035C144.928 169.908 145.98 170.428 147.102 170.441L148.332 170.387V172.137C148.031 172.164 147.566 172.219 146.938 172.219C145.01 172.219 143.055 170.961 143.055 168.5V158.738H140.84V157.152H143.055V153.598H144.941V157.152H148.059ZM158.504 152.203H160.773L167.855 169.211H168.047L175.102 152.203H177.398V172H175.539V156.223H175.375L168.812 172H167.062L160.5 156.223H160.336V172H158.504V152.203ZM181.363 167.844C181.35 164.822 183.797 163.688 186.832 163.441C187.83 163.387 190.223 163.223 190.934 163.195V161.801C190.947 159.805 189.662 158.588 187.324 158.602C185.383 158.588 184.07 159.49 183.715 160.844H181.773C182.088 158.492 184.344 156.947 187.434 156.934C189.648 156.947 192.793 157.891 192.793 161.965V172H190.934V169.703H190.824C190.223 170.975 188.746 172.342 186.258 172.328C183.551 172.342 181.35 170.701 181.363 167.844ZM183.223 167.926C183.223 169.676 184.631 170.66 186.531 170.66C189.252 170.66 190.947 168.705 190.934 166.34V164.74C190.195 164.809 187.844 164.986 187.105 165.027C184.48 165.205 183.223 166.217 183.223 167.926ZM198.699 162.785V172H196.812V157.152H198.617V159.504H198.781C199.492 157.959 200.969 156.961 203.156 156.961C206.164 156.961 208.188 158.861 208.188 162.402V172H206.328V162.539C206.328 160.146 204.906 158.643 202.664 158.656C200.354 158.643 198.686 160.215 198.699 162.785ZM211.469 167.844C211.455 164.822 213.902 163.688 216.938 163.441C217.936 163.387 220.328 163.223 221.039 163.195V161.801C221.053 159.805 219.768 158.588 217.43 158.602C215.488 158.588 214.176 159.49 213.82 160.844H211.879C212.193 158.492 214.449 156.947 217.539 156.934C219.754 156.947 222.898 157.891 222.898 161.965V172H221.039V169.703H220.93C220.328 170.975 218.852 172.342 216.363 172.328C213.656 172.342 211.455 170.701 211.469 167.844ZM213.328 167.926C213.328 169.676 214.736 170.66 216.637 170.66C219.357 170.66 221.053 168.705 221.039 166.34V164.74C220.301 164.809 217.949 164.986 217.211 165.027C214.586 165.205 213.328 166.217 213.328 167.926ZM232.66 177.879C229.393 177.879 226.986 176.471 226.645 173.859H228.613C228.955 175.459 230.527 176.238 232.66 176.238C235.367 176.238 236.994 174.98 237.008 172.273V168.992H236.844C236.256 170.277 234.998 171.836 232.305 171.836C228.75 171.836 226.166 169.02 226.18 164.453C226.166 159.914 228.668 156.947 232.332 156.934C235.08 156.947 236.27 158.643 236.871 159.914H237.035V157.152H238.867V172.383C238.854 176.156 236.242 177.879 232.66 177.879ZM228.066 164.508C228.053 167.844 229.652 170.154 232.551 170.168C235.381 170.154 237.035 168.021 237.035 164.508C237.035 161.076 235.422 158.629 232.551 158.629C229.625 158.629 228.053 161.213 228.066 164.508ZM248.957 172.301C244.76 172.314 242.135 169.184 242.148 164.672C242.135 160.16 244.814 156.947 248.684 156.934C251.91 156.947 255.014 159.217 255.027 164.262V165.137H244.008C244.09 168.5 246.004 170.633 248.957 170.633C250.994 170.633 252.197 169.58 252.73 168.637H254.727C254.057 170.688 251.951 172.314 248.957 172.301ZM244.021 163.523H253.113C253.113 160.748 251.309 158.615 248.711 158.629C246.031 158.615 244.186 160.857 244.021 163.523ZM258.254 172V157.152H260.059V159.449H260.223C260.824 157.891 262.273 156.961 264.215 156.961C266.252 156.961 267.564 157.959 268.234 159.641H268.344C269.027 158 270.6 156.961 272.746 156.961C275.494 156.961 277.258 158.711 277.258 162.047V172H275.371V162.074C275.385 159.764 274.086 158.643 272.172 158.656C269.943 158.643 268.699 160.174 268.699 162.266V172H266.812V161.91C266.812 159.955 265.637 158.643 263.668 158.656C261.658 158.643 260.127 160.256 260.141 162.539V172H258.254ZM287.32 172.301C283.123 172.314 280.498 169.184 280.512 164.672C280.498 160.16 283.178 156.947 287.047 156.934C290.273 156.947 293.377 159.217 293.391 164.262V165.137H282.371C282.453 168.5 284.367 170.633 287.32 170.633C289.357 170.633 290.561 169.58 291.094 168.637H293.09C292.42 170.688 290.314 172.314 287.32 172.301ZM282.385 163.523H291.477C291.477 160.748 289.672 158.615 287.074 158.629C284.395 158.615 282.549 160.857 282.385 163.523ZM298.504 162.785V172H296.617V157.152H298.422V159.504H298.586C299.297 157.959 300.773 156.961 302.961 156.961C305.969 156.961 307.992 158.861 307.992 162.402V172H306.133V162.539C306.133 160.146 304.711 158.643 302.469 158.656C300.158 158.643 298.49 160.215 298.504 162.785ZM317.973 157.152V158.738H314.855V168.035C314.842 169.908 315.895 170.428 317.016 170.441L318.246 170.387V172.137C317.945 172.164 317.48 172.219 316.852 172.219C314.924 172.219 312.969 170.961 312.969 168.5V158.738H310.754V157.152H312.969V153.598H314.855V157.152H317.973Z" fill="#C38520"/>
<defs>
<filter id="filter0_d_3466_53656" x="4.117" y="25.1802" width="520.59" height="110.653" filterUnits="userSpaceOnUse" color-interpolation-filters="sRGB">
<feFlood flood-opacity="0" result="BackgroundImageFix"/>
<feColorMatrix in="SourceAlpha" type="matrix" values="0 0 0 0 0 0 0 0 0 0 0 0 0 0 0 0 0 0 127 0" result="hardAlpha"/>
<feOffset dx="2" dy="2"/>
<feComposite in2="hardAlpha" operator="out"/>
<feColorMatrix type="matrix" values="0 0 0 0 0 0 0 0 0 0 0 0 0 0 0 0 0 0 0.25 0"/>
<feBlend mode="normal" in2="BackgroundImageFix" result="effect1_dropShadow_3466_53656"/>
<feBlend mode="normal" in="SourceGraphic" in2="effect1_dropShadow_3466_53656" result="shape"/>
</filter>
<linearGradient id="paint0_linear_3466_53656" x1="4.75255e-08" y1="46.6667" x2="396.567" y2="222.507" gradientUnits="userSpaceOnUse">
<stop offset="0.140625" stop-color="#EEA840"/>
<stop offset="0.276042" stop-color="#FAF2E4"/>
<stop offset="0.520833" stop-color="#E1A03E"/>
<stop offset="0.833333" stop-color="#EBA51D"/>
<stop offset="0.932292" stop-color="#E6D2B3"/>
<stop offset="1" stop-color="#C59A04"/>
</linearGradient>
</defs>
</svg>
