<svg width="24" height="24" viewBox="0 0 24 24" fill="none" xmlns="http://www.w3.org/2000/svg">
<path d="M7.49983 7.66986V6.69986C7.49983 4.44986 9.30983 2.23986 11.5598 2.02986C12.185 1.96844 12.8161 2.03859 13.4125 2.2358C14.009 2.43301 14.5575 2.75291 15.0228 3.17491C15.4882 3.59691 15.86 4.11166 16.1144 4.68603C16.3687 5.26041 16.5 5.88168 16.4998 6.50986V7.88986M8.99983 21.9999H14.9998C19.0198 21.9999 19.7398 20.3899 19.9498 18.4299L20.6998 12.4299C20.9698 9.98986 20.2698 7.99986 15.9998 7.99986H7.99983C3.72983 7.99986 3.02983 9.98986 3.29983 12.4299L4.04983 18.4299C4.25983 20.3899 4.97983 21.9999 8.99983 21.9999Z" stroke="black" stroke-width="1.5" stroke-miterlimit="10" stroke-linecap="round" stroke-linejoin="round"/>
<path d="M15.4951 12H15.5051M8.49512 12H8.50312" stroke="black" stroke-width="2" stroke-linecap="round" stroke-linejoin="round"/>
</svg>
